<svg width="50" height="50" viewBox="0 0 50 50" fill="none" xmlns="http://www.w3.org/2000/svg">
    <g clip-path="url(#clip0_6_835)">
    <path d="M6.25 45.3125C6.25 46.5557 6.74386 47.748 7.62294 48.6271C8.50201 49.5062 9.6943 50 10.9375 50H39.0625C40.3057 50 41.498 49.5062 42.3771 48.6271C43.2561 47.748 43.75 46.5557 43.75 45.3125V12.5H6.25V45.3125ZM32.8125 20.3125C32.8125 19.8981 32.9771 19.5007 33.2701 19.2077C33.5632 18.9146 33.9606 18.75 34.375 18.75C34.7894 18.75 35.1868 18.9146 35.4799 19.2077C35.7729 19.5007 35.9375 19.8981 35.9375 20.3125V42.1875C35.9375 42.6019 35.7729 42.9993 35.4799 43.2924C35.1868 43.5854 34.7894 43.75 34.375 43.75C33.9606 43.75 33.5632 43.5854 33.2701 43.2924C32.9771 42.9993 32.8125 42.6019 32.8125 42.1875V20.3125ZM23.4375 20.3125C23.4375 19.8981 23.6021 19.5007 23.8951 19.2077C24.1882 18.9146 24.5856 18.75 25 18.75C25.4144 18.75 25.8118 18.9146 26.1049 19.2077C26.3979 19.5007 26.5625 19.8981 26.5625 20.3125V42.1875C26.5625 42.6019 26.3979 42.9993 26.1049 43.2924C25.8118 43.5854 25.4144 43.75 25 43.75C24.5856 43.75 24.1882 43.5854 23.8951 43.2924C23.6021 42.9993 23.4375 42.6019 23.4375 42.1875V20.3125ZM14.0625 20.3125C14.0625 19.8981 14.2271 19.5007 14.5201 19.2077C14.8132 18.9146 15.2106 18.75 15.625 18.75C16.0394 18.75 16.4368 18.9146 16.7299 19.2077C17.0229 19.5007 17.1875 19.8981 17.1875 20.3125V42.1875C17.1875 42.6019 17.0229 42.9993 16.7299 43.2924C16.4368 43.5854 16.0394 43.75 15.625 43.75C15.2106 43.75 14.8132 43.5854 14.5201 43.2924C14.2271 42.9993 14.0625 42.6019 14.0625 42.1875V20.3125ZM45.3125 3.12502H33.5938L32.6758 1.29885C32.4813 0.908429 32.1818 0.58002 31.8109 0.350563C31.4399 0.121105 31.0123 -0.0002957 30.5762 1.71218e-05H19.4141C18.9789 -0.00165578 18.552 0.119293 18.1824 0.349005C17.8128 0.578717 17.5154 0.907902 17.3242 1.29885L16.4062 3.12502H4.6875C4.2731 3.12502 3.87567 3.28964 3.58265 3.58266C3.28962 3.87569 3.125 4.27312 3.125 4.68752L3.125 7.81252C3.125 8.22692 3.28962 8.62434 3.58265 8.91737C3.87567 9.2104 4.2731 9.37502 4.6875 9.37502H45.3125C45.7269 9.37502 46.1243 9.2104 46.4174 8.91737C46.7104 8.62434 46.875 8.22692 46.875 7.81252V4.68752C46.875 4.27312 46.7104 3.87569 46.4174 3.58266C46.1243 3.28964 45.7269 3.12502 45.3125 3.12502Z" fill="white"/>
    </g>
    <defs>
    <clipPath id="clip0_6_835">
    <rect width="50" height="50" fill="white"/>
    </clipPath>
    </defs>
    </svg>
    