<svg width="48" height="48" viewBox="0 0 48 48" fill="none" xmlns="http://www.w3.org/2000/svg">
    <path d="M20.25 0H27.75C28.9969 0 30 1.00312 30 2.25V18H38.2219C39.8906 18 40.725 20.0156 39.5437 21.1969L25.2844 35.4656C24.5813 36.1687 23.4281 36.1687 22.725 35.4656L8.44687 21.1969C7.26562 20.0156 8.1 18 9.76875 18H18V2.25C18 1.00312 19.0031 0 20.25 0ZM48 35.25V45.75C48 46.9969 46.9969 48 45.75 48H2.25C1.00312 48 0 46.9969 0 45.75V35.25C0 34.0031 1.00312 33 2.25 33H16.0031L20.5969 37.5938C22.4812 39.4781 25.5187 39.4781 27.4031 37.5938L31.9969 33H45.75C46.9969 33 48 34.0031 48 35.25ZM36.375 43.5C36.375 42.4688 35.5312 41.625 34.5 41.625C33.4688 41.625 32.625 42.4688 32.625 43.5C32.625 44.5312 33.4688 45.375 34.5 45.375C35.5312 45.375 36.375 44.5312 36.375 43.5ZM42.375 43.5C42.375 42.4688 41.5312 41.625 40.5 41.625C39.4688 41.625 38.625 42.4688 38.625 43.5C38.625 44.5312 39.4688 45.375 40.5 45.375C41.5312 45.375 42.375 44.5312 42.375 43.5Z" fill="white" fill-opacity="0.8"/>
    </svg>
    