<svg width="50" height="50" viewBox="0 0 50 50" fill="none"
    xmlns="http://www.w3.org/2000/svg">
    <g clip-path="url(#clip0_6_833)">
        <path d="M34.9479 9.99992L42.7778 17.8298C43.1076 18.1596 43.1076 18.6978 42.7778 19.0277L23.8194 37.986L15.7639 38.8801C14.6875 39.0017 13.776 38.0902 13.8976 37.0138L14.7917 28.9583L33.75 9.99992C34.0799 9.67006 34.6181 9.67006 34.9479 9.99992ZM49.0104 8.01207L44.7743 3.77596C43.4549 2.45652 41.3108 2.45652 39.9826 3.77596L36.9097 6.84888C36.5799 7.17874 36.5799 7.71693 36.9097 8.04679L44.7396 15.8767C45.0694 16.2065 45.6076 16.2065 45.9375 15.8767L49.0104 12.8037C50.3299 11.4756 50.3299 9.33152 49.0104 8.01207ZM33.3333 32.8298V41.6666H5.55556V13.8888H25.5035C25.7812 13.8888 26.0417 13.776 26.2413 13.585L29.7135 10.1128C30.3733 9.45304 29.9045 8.33325 28.9757 8.33325H4.16667C1.86632 8.33325 0 10.1996 0 12.4999V43.0555C0 45.3558 1.86632 47.2221 4.16667 47.2221H34.7222C37.0226 47.2221 38.8889 45.3558 38.8889 43.0555V29.3576C38.8889 28.4287 37.7691 27.9687 37.1094 28.6197L33.6371 32.0919C33.4462 32.2916 33.3333 32.552 33.3333 32.8298Z" fill="white"/>
    </g>
    <defs>
        <clipPath id="clip0_6_833">
            <rect width="50" height="50" fill="white"/>
        </clipPath>
    </defs>
</svg>
    