<svg width="79" height="79" viewBox="0 0 79 79" fill="none" xmlns="http://www.w3.org/2000/svg">
    <path d="M76.6855 42.123L50.7637 68.0449C48.4492 70.3594 44.4375 68.7393 44.4375 65.4219V50.6094H23.4531C21.401 50.6094 19.75 48.9584 19.75 46.9062V32.0938C19.75 30.0416 21.401 28.3906 23.4531 28.3906H44.4375V13.5781C44.4375 10.2762 48.4338 8.64063 50.7637 10.9551L76.6855 36.877C78.1205 38.3273 78.1205 40.6727 76.6855 42.123ZM29.625 67.2734V61.1016C29.625 60.0832 28.7918 59.25 27.7734 59.25H14.8125C12.0814 59.25 9.875 57.0436 9.875 54.3125V24.6875C9.875 21.9564 12.0814 19.75 14.8125 19.75H27.7734C28.7918 19.75 29.625 18.9168 29.625 17.8984V11.7266C29.625 10.7082 28.7918 9.875 27.7734 9.875H14.8125C6.63477 9.875 0 16.5098 0 24.6875V54.3125C0 62.4902 6.63477 69.125 14.8125 69.125H27.7734C28.7918 69.125 29.625 68.2918 29.625 67.2734Z" fill="black"/>
    </svg>
    